<svg xmlns="http://www.w3.org/2000/svg"  viewBox="0 0 64 64" width="128px" height="128px"><linearGradient id="8xesnh1A1UH5qzSU5Ofa6a" x1="32.5" x2="32.5" y1="-.378" y2="64.868" gradientUnits="userSpaceOnUse"><stop offset="0" stop-color="#1a6dff"/><stop offset=".695" stop-color="#c822ff"/></linearGradient><path fill="url(#8xesnh1A1UH5qzSU5Ofa6a)" d="M55,33.5C55,45.91,44.91,56,32.5,56c-3.63,0-7.07-0.88-10.11-2.42l0.82-1.85 C26,53.18,29.15,54,32.5,54C43.8,54,53,44.8,53,33.5S43.8,13,32.5,13S12,22.2,12,33.5c0,3.98,1.16,7.67,3.12,10.81v0.01 l-0.97,2.14C11.54,42.8,10,38.33,10,33.5C10,21.09,20.09,11,32.5,11S55,21.09,55,33.5z"/><linearGradient id="8xesnh1A1UH5qzSU5Ofa6b" x1="40" x2="40" y1="-7.096" y2="52.554" gradientUnits="userSpaceOnUse"><stop offset="0" stop-color="#6dc7ff"/><stop offset=".492" stop-color="#aab9ff"/><stop offset="1" stop-color="#e6abff"/></linearGradient><polygon fill="url(#8xesnh1A1UH5qzSU5Ofa6b)" points="37,48 43,42.17 43,48"/><linearGradient id="8xesnh1A1UH5qzSU5Ofa6c" x1="27.58" x2="27.58" y1="-8.029" y2="51.291" gradientUnits="userSpaceOnUse"><stop offset="0" stop-color="#6dc7ff"/><stop offset=".492" stop-color="#aab9ff"/><stop offset="1" stop-color="#e6abff"/></linearGradient><polygon fill="url(#8xesnh1A1UH5qzSU5Ofa6c)" points="37,16 28,36 37,36 37,33 43,39 37,45 37,42 25.3,42 19,56 12,56 36.18,4 43.16,4 43,36 37,30"/></svg>